<svg id="svg" version="1.1" xmlns="http://www.w3.org/2000/svg" xmlns:xlink="http://www.w3.org/1999/xlink"  viewBox="0, -70, 400,400"><g id="svgg"><path id="path1" d="M139.319 106.003 C 138.834 106.200,137.934 107.121,137.319 108.051 L 136.200 109.742 136.200 148.434 L 136.200 187.126 137.431 188.647 C 138.109 189.484,139.452 190.586,140.416 191.096 L 142.170 192.023 163.713 191.986 C 179.791 191.958,185.401 192.069,185.828 192.423 C 186.508 192.988,186.668 206.043,186.016 207.758 C 185.655 208.709,185.443 208.774,182.358 208.884 C 178.777 209.011,177.724 209.639,178.646 211.100 C 179.056 211.751,180.434 211.800,198.244 211.800 L 217.400 211.800 217.532 210.643 C 217.708 209.098,217.128 208.813,213.780 208.806 C 212.128 208.803,210.761 208.601,210.480 208.320 C 209.802 207.642,209.802 192.358,210.480 191.680 C 210.842 191.318,216.503 191.200,233.503 191.200 L 256.047 191.200 257.923 189.427 L 259.800 187.654 259.906 148.927 C 260.020 107.544,260.088 109.001,257.945 106.947 L 256.748 105.800 198.474 105.723 C 165.041 105.679,139.824 105.799,139.319 106.003 M254.822 108.812 C 256.854 109.899,256.800 108.808,256.800 148.491 C 256.800 189.478,256.989 186.660,254.161 187.842 C 252.037 188.730,144.288 188.669,142.065 187.779 C 139.237 186.648,139.400 189.080,139.400 147.907 L 139.400 110.734 140.706 109.567 L 142.013 108.400 198.033 108.400 C 235.690 108.400,254.305 108.535,254.822 108.812 M205.569 125.993 C 204.938 126.362,204.488 127.305,202.799 131.800 C 202.303 133.120,201.479 135.190,200.968 136.400 C 199.929 138.861,197.187 145.740,195.786 149.400 C 195.280 150.720,194.300 153.150,193.606 154.800 C 192.913 156.450,192.012 158.700,191.605 159.800 C 191.197 160.900,190.219 163.323,189.432 165.185 C 187.807 169.027,187.669 170.195,188.771 170.784 C 189.754 171.311,191.781 169.726,192.186 168.114 C 192.336 167.516,192.896 166.103,193.429 164.974 C 193.963 163.846,194.400 162.734,194.400 162.503 C 194.400 162.066,196.392 157.083,197.399 155.000 C 197.718 154.340,198.450 152.450,199.025 150.800 C 199.600 149.150,200.587 146.630,201.217 145.200 C 202.528 142.227,205.423 134.974,206.246 132.600 C 206.551 131.720,207.187 130.262,207.659 129.361 C 209.105 126.598,207.888 124.637,205.569 125.993 M175.000 133.371 C 174.120 133.909,171.060 135.631,168.200 137.197 C 149.580 147.391,148.538 148.277,152.489 150.556 C 153.210 150.972,158.300 153.827,163.800 156.900 C 169.300 159.973,174.576 162.942,175.525 163.497 C 178.111 165.009,180.034 163.906,178.807 161.614 C 178.449 160.945,176.679 159.875,169.800 156.172 C 168.480 155.461,166.410 154.321,165.200 153.637 C 163.990 152.953,161.695 151.726,160.099 150.909 C 157.392 149.523,156.432 148.519,156.976 147.640 C 157.199 147.278,166.638 142.000,167.060 142.000 C 167.179 142.000,167.754 141.669,168.338 141.264 C 168.922 140.859,170.840 139.757,172.600 138.815 C 177.978 135.938,179.000 135.135,179.000 133.785 C 179.000 132.176,177.251 131.995,175.000 133.371 M217.261 133.100 C 216.436 134.675,217.433 135.450,227.369 140.955 C 232.775 143.950,237.351 146.400,237.537 146.400 C 238.899 146.400,239.583 148.980,238.400 149.658 C 236.830 150.557,227.594 155.548,226.000 156.358 C 217.914 160.468,215.683 162.643,218.039 164.119 C 218.687 164.525,243.181 151.311,244.952 149.600 C 246.178 148.416,245.531 147.047,243.100 145.677 C 241.945 145.026,236.860 142.170,231.800 139.330 C 226.740 136.490,221.970 133.769,221.200 133.284 C 219.506 132.218,217.766 132.136,217.261 133.100 M206.809 192.000 C 207.390 192.921,207.309 207.731,206.720 208.320 C 206.213 208.827,191.089 209.039,189.833 208.557 C 188.819 208.168,188.884 191.746,189.900 191.464 C 191.783 190.941,206.434 191.406,206.809 192.000 M110.299 228.844 C 107.823 229.796,108.547 232.193,111.443 232.627 C 114.377 233.067,114.400 233.161,114.400 244.515 C 114.400 256.874,114.351 257.002,110.400 255.000 C 98.095 248.765,87.252 266.858,96.795 277.700 C 100.992 282.467,106.940 282.797,112.759 278.584 C 114.497 277.326,114.593 277.336,116.120 278.960 C 118.697 281.698,124.400 281.561,124.400 278.761 C 124.400 277.785,122.886 276.800,121.387 276.800 C 118.471 276.800,118.636 278.231,118.742 253.923 C 118.840 231.257,118.792 230.532,117.118 229.447 C 115.925 228.675,111.710 228.302,110.299 228.844 M351.204 228.737 C 348.510 229.541,349.642 232.800,352.616 232.800 C 355.328 232.800,355.200 231.609,355.200 256.829 C 355.200 281.203,355.200 281.200,357.156 281.200 C 358.771 281.200,359.400 279.679,359.299 276.020 C 359.165 271.214,359.552 271.057,363.117 274.471 C 368.924 280.032,377.058 283.285,379.371 280.971 C 380.965 279.378,379.628 277.819,376.326 277.422 C 371.943 276.895,363.855 271.998,364.517 270.272 C 364.717 269.750,365.291 269.600,367.087 269.600 C 375.976 269.598,381.114 260.789,375.101 255.862 C 371.270 252.722,367.329 252.897,361.691 256.457 C 359.218 258.019,359.186 257.853,359.267 244.049 C 359.344 231.017,359.284 230.409,357.838 229.462 C 356.755 228.752,352.653 228.304,351.204 228.737 M37.359 237.992 C 31.297 238.901,25.703 242.778,22.594 248.225 C 21.974 249.311,21.122 250.587,20.701 251.061 C 20.279 251.534,19.835 252.663,19.713 253.570 C 19.592 254.477,19.336 255.316,19.146 255.433 C 18.359 255.920,18.748 263.429,19.600 264.200 C 20.067 264.623,20.403 265.439,20.407 266.162 C 20.417 267.875,23.447 272.913,26.084 275.603 C 33.798 283.469,46.736 283.507,55.108 275.686 C 58.654 272.374,55.314 270.193,51.578 273.382 C 36.981 285.842,17.784 269.055,25.974 250.992 C 28.851 244.648,32.783 242.258,40.400 242.224 C 48.771 242.187,51.200 243.213,51.200 246.787 C 51.200 249.062,51.774 250.000,53.165 250.000 C 56.767 250.000,56.412 242.813,52.702 240.639 C 49.299 238.644,41.723 237.337,37.359 237.992 M127.966 238.942 C 125.956 239.944,126.689 241.845,129.244 242.253 C 131.803 242.663,131.712 241.958,131.647 260.975 L 131.587 278.340 132.558 279.470 L 133.530 280.600 146.811 280.716 C 160.791 280.837,162.000 280.700,162.000 278.991 C 162.000 276.932,161.210 276.800,148.862 276.800 C 134.670 276.800,136.000 277.581,136.000 269.242 C 136.000 260.880,135.139 261.600,145.138 261.600 C 154.016 261.600,154.039 261.605,155.351 263.721 C 156.267 265.199,157.056 265.455,158.015 264.587 C 158.959 263.732,159.211 255.371,158.320 254.480 C 157.407 253.567,156.029 253.931,155.218 255.300 C 153.802 257.689,154.179 257.600,145.484 257.594 C 135.347 257.586,136.228 258.256,136.073 250.440 C 135.896 241.544,134.733 242.400,147.000 242.400 C 158.167 242.400,158.000 242.362,158.000 244.885 C 158.000 246.249,159.095 247.600,160.200 247.600 C 162.505 247.600,163.384 241.989,161.435 239.722 L 160.469 238.600 144.697 238.532 C 133.145 238.482,128.669 238.592,127.966 238.942 M222.029 246.165 C 221.705 246.555,221.644 247.659,221.832 249.731 C 222.141 253.142,221.023 255.146,219.076 254.670 C 218.594 254.552,217.390 254.247,216.400 253.994 C 207.448 251.698,198.710 264.048,205.374 269.578 C 206.512 270.523,206.127 272.114,204.356 273.793 C 202.767 275.299,202.722 275.412,202.998 277.175 C 203.422 279.882,203.370 280.135,201.985 282.100 C 195.103 291.864,214.045 300.300,225.260 292.466 C 233.637 286.613,229.511 280.757,215.783 279.014 C 207.775 277.996,206.895 277.670,207.343 275.884 C 207.699 274.467,209.288 273.999,213.400 274.103 C 222.134 274.324,227.989 267.104,224.791 260.056 C 223.807 257.888,223.798 257.012,224.744 255.662 C 226.524 253.123,226.822 248.738,225.367 246.500 C 224.694 245.465,222.770 245.272,222.029 246.165 M69.000 255.153 C 58.508 260.190,58.613 275.471,69.173 280.338 C 82.688 286.565,94.513 268.731,84.075 257.865 C 80.253 253.886,73.986 252.759,69.000 255.153 M167.275 254.625 C 164.695 255.710,165.626 258.400,168.582 258.400 C 171.193 258.400,171.297 258.835,171.193 269.279 C 171.079 280.717,171.003 279.853,172.180 280.624 C 174.911 282.413,175.597 280.546,175.614 271.281 C 175.630 262.791,175.627 262.803,178.730 260.257 C 182.223 257.392,185.882 256.943,188.410 259.069 L 189.600 260.071 189.600 268.605 L 189.600 277.139 190.681 278.424 C 192.670 280.788,197.450 281.713,198.974 280.029 C 200.302 278.562,198.808 276.800,196.236 276.800 C 194.201 276.800,194.000 275.977,194.000 267.653 C 194.000 258.576,193.743 257.726,190.301 255.408 C 186.673 252.964,180.933 253.603,177.374 256.847 C 176.238 257.883,175.117 257.790,173.970 256.563 C 172.113 254.578,169.314 253.768,167.275 254.625 M251.800 255.061 C 236.973 262.648,245.840 286.303,261.454 280.815 C 265.797 279.288,269.224 275.804,268.119 274.038 C 267.368 272.839,265.904 273.088,263.893 274.757 C 255.492 281.729,244.949 273.825,248.921 263.532 C 251.618 256.543,262.686 255.341,263.469 261.951 C 263.834 265.031,265.407 266.161,266.952 264.453 C 267.881 263.427,267.929 258.761,267.026 257.383 C 264.958 254.228,256.075 252.873,251.800 255.061 M281.187 255.182 C 275.130 258.310,272.405 264.020,273.843 270.566 C 276.687 283.505,293.028 285.586,298.854 273.750 C 304.486 262.310,292.261 249.461,281.187 255.182 M341.200 254.800 C 340.456 255.544,340.400 256.135,340.398 263.300 C 340.395 272.646,339.819 274.032,334.878 276.565 C 328.193 279.993,326.000 277.357,326.000 265.895 L 326.000 257.750 324.900 256.721 C 321.591 253.625,316.400 253.583,316.400 256.651 C 316.400 257.841,317.193 258.400,318.880 258.400 C 321.882 258.400,322.055 258.926,321.954 267.721 C 321.855 276.373,322.105 277.524,324.479 279.335 C 328.685 282.543,334.128 282.256,338.476 278.597 C 340.027 277.292,340.287 277.328,342.089 279.087 C 344.175 281.124,348.670 281.580,349.791 279.870 C 350.596 278.641,350.080 277.311,348.688 277.030 C 344.021 276.086,344.400 277.116,344.400 265.374 C 344.400 255.361,344.390 255.238,343.511 254.623 C 342.367 253.821,342.163 253.837,341.200 254.800 M77.328 258.029 C 85.177 260.208,85.930 273.361,78.400 276.768 C 72.151 279.595,65.600 275.142,65.600 268.068 C 65.600 260.686,70.816 256.221,77.328 258.029 M108.342 258.180 C 113.387 259.522,114.400 260.963,114.400 266.794 C 114.400 271.705,114.120 272.599,111.934 274.655 C 104.776 281.390,95.794 275.668,97.607 265.528 C 98.732 259.228,102.526 256.632,108.342 258.180 M218.361 258.704 C 223.787 262.722,221.092 270.000,214.179 270.000 C 208.906 270.000,205.958 265.230,208.469 260.762 C 210.182 257.714,215.524 256.603,218.361 258.704 M289.909 258.210 C 297.314 260.409,298.176 272.993,291.170 276.616 C 286.640 278.958,280.175 276.641,278.636 272.123 C 275.633 263.310,281.732 255.782,289.909 258.210 M371.889 258.389 C 376.204 261.020,372.205 265.577,365.290 265.910 C 359.153 266.206,358.019 264.904,361.300 261.330 C 364.413 257.940,369.043 256.654,371.889 258.389 M233.279 276.700 C 232.024 277.785,231.872 278.930,232.822 280.137 C 233.843 281.436,235.645 281.555,236.800 280.400 C 239.028 278.172,235.665 274.637,233.279 276.700 M308.400 276.278 C 306.666 276.897,306.227 279.553,307.689 280.577 C 310.507 282.551,313.638 278.947,310.946 276.829 C 309.873 275.985,309.466 275.897,308.400 276.278 M215.229 282.993 C 225.912 284.545,228.077 287.174,221.266 290.323 C 213.067 294.113,202.543 290.034,205.202 284.096 C 206.298 281.646,206.107 281.667,215.229 282.993 " stroke="none" fill="#202020" ></path></g></svg>